<svg xmlns="http://www.w3.org/2000/svg" xmlns:xlink="http://www.w3.org/1999/xlink" xmlns:lucid="lucid" width="1878.4" height="1286.4"><g transform="translate(20 8)" lucid:page-tab-id="0_0"><path d="M0 0h1870.4v1323.2H0z" fill="#fff"/><path d="M0 12h880v88H0z" fill="none"/><use xlink:href="#a" transform="matrix(1,0,0,1,0,12) translate(121.40740740740739 53.77777777777778)"/><use xlink:href="#b" transform="matrix(1,0,0,1,0,12) translate(346.2962962962963 53.77777777777778)"/><use xlink:href="#c" transform="matrix(1,0,0,1,0,12) translate(414.1975308641976 53.77777777777778)"/><use xlink:href="#d" transform="matrix(1,0,0,1,0,12) translate(604.1851851851852 53.77777777777778)"/><use xlink:href="#e" transform="matrix(1,0,0,1,0,12) translate(642.2098765432099 53.77777777777778)"/><path d="M140 520h240v120H140z" stroke="#000" stroke-width="2" fill="#fff"/><use xlink:href="#f" transform="matrix(1,0,0,1,145,525) translate(21.814814814814795 44.333333333333336)"/><use xlink:href="#g" transform="matrix(1,0,0,1,145,525) translate(129.74074074074073 44.333333333333336)"/><use xlink:href="#h" transform="matrix(1,0,0,1,145,525) translate(166.77777777777777 44.333333333333336)"/><use xlink:href="#i" transform="matrix(1,0,0,1,145,525) translate(72.1111111111111 76.33333333333334)"/><path d="M332 300c26.5 0 48 26.86 48 60s-21.5 60-48 60H188c-26.5 0-48-26.86-48-60s21.5-60 48-60z" stroke="#000" stroke-width="2" fill="#fff"/><use xlink:href="#j" transform="matrix(1,0,0,1,145,305) translate(22.59259259259258 60.333333333333336)"/><use xlink:href="#k" transform="matrix(1,0,0,1,145,305) translate(111.33333333333333 60.333333333333336)"/><path d="M260 518v-78.5" stroke="#000" stroke-width="2" fill="none"/><path d="M261 519h-2v-1.03h2z"/><path d="M260 424.24l4.64 14.26h-9.28z" stroke="#000" stroke-width="2"/><path d="M648 140c28.72 0 52 31.34 52 70s-23.28 70-52 70H492c-28.72 0-52-31.34-52-70s23.28-70 52-70z" stroke="#000" stroke-width="2" fill="#fff"/><use xlink:href="#l" transform="matrix(1,0,0,1,445,145) translate(19.925925925925924 54.333333333333336)"/><use xlink:href="#m" transform="matrix(1,0,0,1,445,145) translate(156.07407407407408 54.333333333333336)"/><use xlink:href="#n" transform="matrix(1,0,0,1,445,145) translate(65.11111111111111 86.33333333333334)"/><path d="M988 140c28.72 0 52 31.34 52 70s-23.28 70-52 70H832c-28.72 0-52-31.34-52-70s23.28-70 52-70z" stroke="#000" stroke-width="2" fill="#fff"/><use xlink:href="#o" transform="matrix(1,0,0,1,785,145) translate(26.666666666666657 54.333333333333336)"/><use xlink:href="#p" transform="matrix(1,0,0,1,785,145) translate(140.59259259259255 54.333333333333336)"/><use xlink:href="#n" transform="matrix(1,0,0,1,785,145) translate(65.11111111111111 86.33333333333334)"/><path d="M260 298v-98.65h161.15" stroke="#000" stroke-width="2" fill="none"/><path d="M261 299h-2v-1.03h2z"/><path d="M436.4 199.35L422.16 204v-9.3z" stroke="#000" stroke-width="2"/><path d="M702 210h58.5" stroke="#000" stroke-width="2" fill="none"/><path d="M702.03 211h-1.06l.03-1-.03-1h1.06z"/><path d="M775.76 210l-14.26 4.64v-9.28z" stroke="#000" stroke-width="2"/><path d="M988 360c28.72 0 52 31.34 52 70s-23.28 70-52 70H832c-28.72 0-52-31.34-52-70s23.28-70 52-70z" stroke="#000" stroke-width="2" fill="#fff"/><use xlink:href="#o" transform="matrix(1,0,0,1,785,365.00000000000006) translate(15.518518518518533 54.333333333333336)"/><use xlink:href="#q" transform="matrix(1,0,0,1,785,365.00000000000006) translate(129.44444444444446 54.333333333333336)"/><use xlink:href="#r" transform="matrix(1,0,0,1,785,365.00000000000006) translate(204.85185185185185 54.333333333333336)"/><use xlink:href="#s" transform="matrix(1,0,0,1,785,365.00000000000006) translate(95.37037037037037 86.33333333333334)"/><path d="M1368 260c28.72 0 52 26.86 52 60s-23.28 60-52 60h-156c-28.72 0-52-26.86-52-60s23.28-60 52-60z" stroke="#000" stroke-width="2" fill="#fff"/><use xlink:href="#t" transform="matrix(1,0,0,1,1165,265) translate(34 60.333333333333336)"/><use xlink:href="#u" transform="matrix(1,0,0,1,1165,265) translate(130.22222222222223 60.333333333333336)"/><path d="M1368 460c28.72 0 52 26.86 52 60s-23.28 60-52 60h-156c-28.72 0-52-26.86-52-60s23.28-60 52-60z" stroke="#000" stroke-width="2" fill="#fff"/><use xlink:href="#t" transform="matrix(1,0,0,1,1165,465) translate(49.51851851851852 60.333333333333336)"/><use xlink:href="#v" transform="matrix(1,0,0,1,1165,465) translate(145.74074074074073 60.333333333333336)"/><path d="M910 282v58.5" stroke="#000" stroke-width="2" fill="none"/><path d="M911 282.03h-2V281h2z"/><path d="M910 355.76l-4.64-14.26h9.28z" stroke="#000" stroke-width="2"/><path d="M1042 430h58.3V311.42h40.78" stroke="#000" stroke-width="2" fill="none"/><path d="M1042.03 431h-1.06l.03-1-.03-1h1.06z"/><path d="M1156.34 311.42l-14.26 4.64v-9.27z" stroke="#000" stroke-width="2"/><path d="M1042 430h58v90h40.5" stroke="#000" stroke-width="2" fill="none"/><path d="M1042.03 431h-1.06l.03-1-.03-1h1.06z"/><path d="M1155.76 520l-14.26 4.64v-9.28z" stroke="#000" stroke-width="2"/><path d="M1580 260h160v120h-160z" stroke="#000" stroke-width="2" fill="#fff"/><use xlink:href="#w" transform="matrix(1,0,0,1,1585,265) translate(19.51851851851852 60.333333333333336)"/><path d="M1580 480h160v120h-160z" stroke="#000" stroke-width="2" fill="#fff"/><use xlink:href="#x" transform="matrix(1,0,0,1,1585,485) translate(44.7037037037037 60.333333333333336)"/><path d="M1422 320h138.5" stroke="#000" stroke-width="2" fill="none"/><path d="M1422.03 321h-1.07l.04-1-.03-1h1.06z"/><path d="M1575.76 320l-14.26 4.64v-9.28z" stroke="#000" stroke-width="2"/><path d="M1422 520h138.5" stroke="#000" stroke-width="2" fill="none"/><path d="M1422.03 521h-1.07l.04-1-.03-1h1.06z"/><path d="M1575.76 520l-14.26 4.64v-9.28z" stroke="#000" stroke-width="2"/><path d="M1027 818.4c28.72 0 52 31.34 52 70s-23.28 70-52 70H871c-28.72 0-52-31.34-52-70s23.28-70 52-70z" stroke="#000" stroke-width="2" fill="#fff"/><use xlink:href="#y" transform="matrix(1,0,0,1,824,823.4000000000001) translate(48.81481481481481 54.333333333333336)"/><use xlink:href="#g" transform="matrix(1,0,0,1,824,823.4000000000001) translate(143.48148148148147 54.333333333333336)"/><use xlink:href="#z" transform="matrix(1,0,0,1,824,823.4000000000001) translate(180.5185185185185 54.333333333333336)"/><use xlink:href="#A" transform="matrix(1,0,0,1,824,823.4000000000001) translate(24.370370370370367 86.33333333333334)"/><path d="M1027 978.4c28.72 0 52 31.34 52 70s-23.28 70-52 70H871c-28.72 0-52-31.34-52-70s23.28-70 52-70z" stroke="#000" stroke-width="2" fill="#fff"/><use xlink:href="#y" transform="matrix(1,0,0,1,824,983.4000000000001) translate(48.81481481481481 54.333333333333336)"/><use xlink:href="#g" transform="matrix(1,0,0,1,824,983.4000000000001) translate(143.48148148148147 54.333333333333336)"/><use xlink:href="#z" transform="matrix(1,0,0,1,824,983.4000000000001) translate(180.5185185185185 54.333333333333336)"/><use xlink:href="#B" transform="matrix(1,0,0,1,824,983.4000000000001) translate(35.48148148148148 86.33333333333334)"/><use xlink:href="#g" transform="matrix(1,0,0,1,824,983.4000000000001) translate(136 86.33333333333334)"/><use xlink:href="#C" transform="matrix(1,0,0,1,824,983.4000000000001) translate(173.037037037037 86.33333333333334)"/><path d="M1027 1138.4c28.72 0 52 26.86 52 60s-23.28 60-52 60H871c-28.72 0-52-26.86-52-60s23.28-60 52-60z" stroke="#000" stroke-width="2" fill="#fff"/><use xlink:href="#y" transform="matrix(1,0,0,1,824,1143.4) translate(31.037037037037024 60.333333333333336)"/><use xlink:href="#D" transform="matrix(1,0,0,1,824,1143.4) translate(125.7037037037037 60.333333333333336)"/><use xlink:href="#E" transform="matrix(1,0,0,1,824,1143.4) translate(168.5925925925926 60.333333333333336)"/><path d="M700 1067.4v-179h99.5M700 1067.37v1.03" stroke="#000" stroke-width="2" fill="none"/><path d="M814.76 888.4l-14.26 4.64v-9.28z" stroke="#000" stroke-width="2"/><path d="M701 1068.4h100.63M701.03 1068.4H700" stroke="#000" stroke-width="2" fill="none"/><path d="M816.9 1068.4l-14.27 4.64v-9.28z" stroke="#000" stroke-width="2"/><path d="M700 1069.4v117.9h100.4M700 1069.43v-1.03" stroke="#000" stroke-width="2" fill="none"/><path d="M815.66 1187.3l-14.27 4.63v-9.27z" stroke="#000" stroke-width="2"/><path d="M552 958.4c26.5 0 48 26.86 48 60s-21.5 60-48 60H408c-26.5 0-48-26.86-48-60s21.5-60 48-60z" stroke="#000" stroke-width="2" fill="#fff"/><use xlink:href="#F" transform="matrix(1,0,0,1,365,963.4000000000001) translate(41.037037037037024 44.333333333333336)"/><use xlink:href="#g" transform="matrix(1,0,0,1,365,963.4000000000001) translate(110.51851851851852 44.333333333333336)"/><use xlink:href="#h" transform="matrix(1,0,0,1,365,963.4000000000001) translate(147.55555555555554 44.333333333333336)"/><use xlink:href="#i" transform="matrix(1,0,0,1,365,963.4000000000001) translate(72.1111111111111 76.33333333333334)"/><path d="M602 1018.4h48.5v.5h31" stroke="#000" stroke-width="2" fill="none"/><path d="M602.03 1019.4h-1.07l.04-1-.03-1h1.06z"/><path d="M696.76 1018.9l-14.26 4.64v-9.28z" stroke="#000" stroke-width="2"/><path d="M580 621.6h240v120H580z" stroke="#000" stroke-width="2" fill="#fff"/><use xlink:href="#G" transform="matrix(1,0,0,1,585,626.5999999999999) translate(40.25925925925925 28.33333333333333)"/><use xlink:href="#H" transform="matrix(1,0,0,1,585,626.5999999999999) translate(46.92592592592591 60.33333333333333)"/><use xlink:href="#r" transform="matrix(1,0,0,1,585,626.5999999999999) translate(153.44444444444446 60.33333333333333)"/><use xlink:href="#I" transform="matrix(1,0,0,1,585,626.5999999999999) translate(70.59259259259258 92.33333333333334)"/><path d="M822 681.6h127v117.3" stroke="#000" stroke-width="2" fill="none"/><path d="M822.03 682.6H821v-2h1.03z"/><path d="M949 814.16l-4.64-14.26h9.28z" stroke="#000" stroke-width="2"/><path d="M1428 900c28.72 0 52 31.34 52 70s-23.28 70-52 70h-156c-28.72 0-52-31.34-52-70s23.28-70 52-70z" stroke="#000" stroke-width="2" fill="#fff"/><use xlink:href="#t" transform="matrix(1,0,0,1,1225,905) translate(39.888888888888886 70.33333333333334)"/><use xlink:href="#J" transform="matrix(1,0,0,1,1225,905) translate(136.1111111111111 70.33333333333334)"/><path d="M1428 1100c28.72 0 52 31.34 52 70s-23.28 70-52 70h-156c-28.72 0-52-31.34-52-70s23.28-70 52-70z" stroke="#000" stroke-width="2" fill="#fff"/><use xlink:href="#K" transform="matrix(1,0,0,1,1225,1105) translate(9.629629629629619 54.333333333333336)"/><use xlink:href="#L" transform="matrix(1,0,0,1,1225,1105) translate(105.70370370370371 54.333333333333336)"/><use xlink:href="#M" transform="matrix(1,0,0,1,1225,1105) translate(82.1111111111111 86.33333333333334)"/><path d="M1081 888.4h68.5V1170h51" stroke="#000" stroke-width="2" fill="none"/><path d="M1081.03 889.4h-1.06l.03-1-.03-1h1.06z"/><path d="M1215.76 1170l-14.26 4.64v-9.28z" stroke="#000" stroke-width="2"/><path d="M1081 1048.4h68.5V1170h51" stroke="#000" stroke-width="2" fill="none"/><path d="M1081.03 1049.4h-1.06l.03-1-.03-1h1.06z"/><path d="M1215.76 1170l-14.26 4.64v-9.28z" stroke="#000" stroke-width="2"/><path d="M1081 1198.4h68.5V1170h51" stroke="#000" stroke-width="2" fill="none"/><path d="M1081.03 1199.4h-1.07l.04-1-.03-1h1.06z"/><path d="M1215.76 1170l-14.26 4.64v-9.28z" stroke="#000" stroke-width="2"/><path d="M1081 888.4h68.5V970h51" stroke="#000" stroke-width="2" fill="none"/><path d="M1081.03 889.4h-1.06l.03-1-.03-1h1.06z"/><path d="M1215.76 970l-14.26 4.64v-9.28z" stroke="#000" stroke-width="2"/><path d="M1081 1048.4h68.5V970h51" stroke="#000" stroke-width="2" fill="none"/><path d="M1081.03 1049.4h-1.06l.03-1-.03-1h1.06z"/><path d="M1215.76 970l-14.26 4.64v-9.28z" stroke="#000" stroke-width="2"/><path d="M1081 1198.4h68.5V970h51" stroke="#000" stroke-width="2" fill="none"/><path d="M1081.03 1199.4h-1.07l.04-1-.03-1h1.06z"/><path d="M1215.76 970l-14.26 4.64v-9.28z" stroke="#000" stroke-width="2"/><path d="M1580 910h160v120h-160z" stroke="#000" stroke-width="2" fill="#fff"/><g><use xlink:href="#N" transform="matrix(1,0,0,1,1585,915) translate(32.81481481481481 60.333333333333336)"/></g><path d="M1580 1110h160v120h-160z" stroke="#000" stroke-width="2" fill="#fff"/><g><use xlink:href="#O" transform="matrix(1,0,0,1,1585,1115) translate(27.037037037037038 44.333333333333336)"/><use xlink:href="#M" transform="matrix(1,0,0,1,1585,1115) translate(32.1111111111111 76.33333333333334)"/></g><path d="M1482 970h78.5" stroke="#000" stroke-width="2" fill="none"/><path d="M1482.03 971h-1.06l.03-1-.03-1h1.06z"/><path d="M1575.76 970l-14.26 4.64v-9.28z" stroke="#000" stroke-width="2"/><path d="M1482 1170h78.5" stroke="#000" stroke-width="2" fill="none"/><path d="M1482.03 1171h-1.06l.03-1-.03-1h1.06z"/><path d="M1575.76 1170l-14.26 4.64v-9.28z" stroke="#000" stroke-width="2"/><path d="M140 738.4h240v120H140z" stroke="#000" stroke-width="2" fill="#fff"/><g><use xlink:href="#P" transform="matrix(1,0,0,1,145,743.4000000000233) translate(35.07407407407406 44.333333333333336)"/><use xlink:href="#g" transform="matrix(1,0,0,1,145,743.4000000000233) translate(116.48148148148148 44.333333333333336)"/><use xlink:href="#h" transform="matrix(1,0,0,1,145,743.4000000000233) translate(153.51851851851853 44.333333333333336)"/><use xlink:href="#i" transform="matrix(1,0,0,1,145,743.4000000000233) translate(72.1111111111111 76.33333333333334)"/></g><path d="M260 860.4v158h80.5" stroke="#000" stroke-width="2" fill="none"/><path d="M261 860.43h-2v-1.03h2z"/><path d="M355.76 1018.4l-14.26 4.64v-9.28z" stroke="#000" stroke-width="2"/><path d="M1428 680c28.72 0 52 35.46 52 79.2s-23.28 79.2-52 79.2h-156c-28.72 0-52-35.46-52-79.2s23.28-79.2 52-79.2z" stroke="#000" stroke-width="2" fill="#fff"/><g><use xlink:href="#Q" transform="matrix(1,0,0,1,1225,685) translate(12.555555555555557 63.833333333333336)"/><use xlink:href="#R" transform="matrix(1,0,0,1,1225,685) translate(119 63.833333333333336)"/><use xlink:href="#S" transform="matrix(1,0,0,1,1225,685) translate(139.74074074074076 63.833333333333336)"/><use xlink:href="#g" transform="matrix(1,0,0,1,1225,685) translate(71.74074074074073 95.83333333333334)"/><use xlink:href="#T" transform="matrix(1,0,0,1,1225,685) translate(108.77777777777777 95.83333333333334)"/><use xlink:href="#h" transform="matrix(1,0,0,1,1225,685) translate(136.85185185185185 95.83333333333334)"/></g><path d="M1081 888.4h68.72V768.96h51.22" stroke="#000" stroke-width="2" fill="none"/><path d="M1081.03 889.4h-1.06l.03-1-.03-1h1.06z"/><path d="M1216.2 768.96l-14.26 4.63v-9.28z" stroke="#000" stroke-width="2"/><path d="M1580 699.2h160v120h-160z" stroke="#000" stroke-width="2" fill="#fff"/><g><use xlink:href="#U" transform="matrix(1,0,0,1,1585,704.2) translate(17.29629629629629 28.33333333333333)"/><use xlink:href="#g" transform="matrix(1,0,0,1,1585,704.2) translate(35.77777777777777 60.33333333333333)"/><use xlink:href="#h" transform="matrix(1,0,0,1,1585,704.2) translate(72.81481481481481 60.33333333333333)"/><use xlink:href="#i" transform="matrix(1,0,0,1,1585,704.2) translate(32.1111111111111 92.33333333333334)"/></g><path d="M1482 759.2h78.5" stroke="#000" stroke-width="2" fill="none"/><path d="M1482.03 760.2h-1.06l.03-1-.03-1h1.06z"/><path d="M1575.76 759.2l-14.26 4.64v-9.28z" stroke="#000" stroke-width="2"/><path d="M1248.8 12h589.6v88h-589.6z" fill="none"/><g><use xlink:href="#V" transform="matrix(1,0,0,1,1248.7999999999997,12) translate(152.74691358024685 53.77777777777778)"/></g><defs><path d="M30-248c118-7 216 8 213 122C240-48 200 0 122 0H30v-248zM63-27c89 8 146-16 146-99s-60-101-146-95v194" id="W"/><path d="M24-231v-30h32v30H24zM24 0v-190h32V0H24" id="X"/><path d="M141-36C126-15 110 5 73 4 37 3 15-17 15-53c-1-64 63-63 125-63 3-35-9-54-41-54-24 1-41 7-42 31l-33-3c5-37 33-52 76-52 45 0 72 20 72 64v82c-1 20 7 32 28 27v20c-31 9-61-2-59-35zM48-53c0 20 12 33 32 33 41-3 63-29 60-74-43 2-92-5-92 41" id="Y"/><path d="M177-190C167-65 218 103 67 71c-23-6-38-20-44-43l32-5c15 47 100 32 89-28v-30C133-14 115 1 83 1 29 1 15-40 15-95c0-56 16-97 71-98 29-1 48 16 59 35 1-10 0-23 2-32h30zM94-22c36 0 50-32 50-73 0-42-14-75-50-75-39 0-46 34-46 75s6 73 46 73" id="Z"/><path d="M114-163C36-179 61-72 57 0H25l-1-190h30c1 12-1 29 2 39 6-27 23-49 58-41v29" id="aa"/><path d="M210-169c-67 3-38 105-44 169h-31v-121c0-29-5-50-35-48C34-165 62-65 56 0H25l-1-190h30c1 10-1 24 2 32 10-44 99-50 107 0 11-21 27-35 58-36 85-2 47 119 55 194h-31v-121c0-29-5-49-35-48" id="ab"/><g id="a"><use transform="matrix(0.1358024691358025,0,0,0.1358024691358025,0,0)" xlink:href="#W"/><use transform="matrix(0.1358024691358025,0,0,0.1358024691358025,35.17283950617284,0)" xlink:href="#X"/><use transform="matrix(0.1358024691358025,0,0,0.1358024691358025,45.90123456790124,0)" xlink:href="#Y"/><use transform="matrix(0.1358024691358025,0,0,0.1358024691358025,73.06172839506173,0)" xlink:href="#Z"/><use transform="matrix(0.1358024691358025,0,0,0.1358024691358025,100.22222222222223,0)" xlink:href="#aa"/><use transform="matrix(0.1358024691358025,0,0,0.1358024691358025,116.38271604938272,0)" xlink:href="#Y"/><use transform="matrix(0.1358024691358025,0,0,0.1358024691358025,143.54320987654324,0)" xlink:href="#ab"/><use transform="matrix(0.1358024691358025,0,0,0.1358024691358025,184.14814814814815,0)" xlink:href="#Y"/></g><path d="M85-194c31 0 48 13 60 33l-1-100h32l1 261h-30c-2-10 0-23-3-31C134-8 116 4 85 4 32 4 16-35 15-94c0-66 23-100 70-100zm9 24c-40 0-46 34-46 75 0 40 6 74 45 74 42 0 51-32 51-76 0-42-9-74-50-73" id="ac"/><path d="M100-194c63 0 86 42 84 106H49c0 40 14 67 53 68 26 1 43-12 49-29l28 8c-11 28-37 45-77 45C44 4 14-33 15-96c1-61 26-98 85-98zm52 81c6-60-76-77-97-28-3 7-6 17-6 28h103" id="ad"/><g id="b"><use transform="matrix(0.1358024691358025,0,0,0.1358024691358025,0,0)" xlink:href="#ac"/><use transform="matrix(0.1358024691358025,0,0,0.1358024691358025,27.160493827160497,0)" xlink:href="#ad"/></g><path d="M59-47c-2 24 18 29 38 22v24C64 9 27 4 27-40v-127H5v-23h24l9-43h21v43h35v23H59v120" id="ae"/><path d="M84 4C-5 8 30-112 23-190h32v120c0 31 7 50 39 49 72-2 45-101 50-169h31l1 190h-30c-1-10 1-25-2-33-11 22-28 36-60 37" id="af"/><path d="M115-194c53 0 69 39 70 98 0 66-23 100-70 100C84 3 66-7 56-30L54 0H23l1-261h32v101c10-23 28-34 59-34zm-8 174c40 0 45-34 45-75 0-40-5-75-45-74-42 0-51 32-51 76 0 43 10 73 51 73" id="ag"/><path d="M34 0v-190h32V0H34zM24-211c8-23 27-35 38-54h36v5l-58 49H24" id="ah"/><path d="M135-143c-3-34-86-38-87 0 15 53 115 12 119 90S17 21 10-45l28-5c4 36 97 45 98 0-10-56-113-15-118-90-4-57 82-63 122-42 12 7 21 19 24 35" id="ai"/><g id="c"><use transform="matrix(0.1358024691358025,0,0,0.1358024691358025,0,0)" xlink:href="#ae"/><use transform="matrix(0.1358024691358025,0,0,0.1358024691358025,13.580246913580249,0)" xlink:href="#af"/><use transform="matrix(0.1358024691358025,0,0,0.1358024691358025,40.74074074074075,0)" xlink:href="#ag"/><use transform="matrix(0.1358024691358025,0,0,0.1358024691358025,67.90123456790124,0)" xlink:href="#ad"/><use transform="matrix(0.1358024691358025,0,0,0.1358024691358025,95.06172839506175,0)" xlink:href="#aa"/><use transform="matrix(0.1358024691358025,0,0,0.1358024691358025,111.22222222222223,0)" xlink:href="#ah"/><use transform="matrix(0.1358024691358025,0,0,0.1358024691358025,124.80246913580248,0)" xlink:href="#Y"/><use transform="matrix(0.1358024691358025,0,0,0.1358024691358025,151.962962962963,0)" xlink:href="#ai"/></g><path d="M179-190L93 31C79 59 56 82 12 73V49c39 6 53-20 64-50L1-190h34L92-34l54-156h33" id="aj"/><use transform="matrix(0.1358024691358025,0,0,0.1358024691358025,0,0)" xlink:href="#aj" id="d"/><path d="M101-234c-31-9-42 10-38 44h38v23H63V0H32v-167H5v-23h27c-7-52 17-82 69-68v24" id="ak"/><path d="M24 0v-261h32V0H24" id="al"/><path d="M100-194c62-1 85 37 85 99 1 63-27 99-86 99S16-35 15-95c0-66 28-99 85-99zM99-20c44 1 53-31 53-75 0-43-8-75-51-75s-53 32-53 75 10 74 51 75" id="am"/><g id="e"><use transform="matrix(0.1358024691358025,0,0,0.1358024691358025,0,0)" xlink:href="#ak"/><use transform="matrix(0.1358024691358025,0,0,0.1358024691358025,13.580246913580249,0)" xlink:href="#X"/><use transform="matrix(0.1358024691358025,0,0,0.1358024691358025,24.308641975308646,0)" xlink:href="#al"/><use transform="matrix(0.1358024691358025,0,0,0.1358024691358025,35.037037037037045,0)" xlink:href="#ae"/><use transform="matrix(0.1358024691358025,0,0,0.1358024691358025,48.61728395061729,0)" xlink:href="#aa"/><use transform="matrix(0.1358024691358025,0,0,0.1358024691358025,64.77777777777779,0)" xlink:href="#am"/><use transform="matrix(0.1358024691358025,0,0,0.1358024691358025,91.93827160493828,0)" xlink:href="#ai"/></g><path d="M185-189c-5-48-123-54-124 2 14 75 158 14 163 119 3 78-121 87-175 55-17-10-28-26-33-46l33-7c5 56 141 63 141-1 0-78-155-14-162-118-5-82 145-84 179-34 5 7 8 16 11 25" id="an"/><path d="M96-169c-40 0-48 33-48 73s9 75 48 75c24 0 41-14 43-38l32 2c-6 37-31 61-74 61-59 0-76-41-82-99-10-93 101-131 147-64 4 7 5 14 7 22l-32 3c-4-21-16-35-41-35" id="ao"/><g id="f"><use transform="matrix(0.07407407407407408,0,0,0.07407407407407408,0,0)" xlink:href="#an"/><use transform="matrix(0.07407407407407408,0,0,0.07407407407407408,17.77777777777778,0)" xlink:href="#am"/><use transform="matrix(0.07407407407407408,0,0,0.07407407407407408,32.592592592592595,0)" xlink:href="#al"/><use transform="matrix(0.07407407407407408,0,0,0.07407407407407408,38.44444444444445,0)" xlink:href="#X"/><use transform="matrix(0.07407407407407408,0,0,0.07407407407407408,44.296296296296305,0)" xlink:href="#ao"/><use transform="matrix(0.07407407407407408,0,0,0.07407407407407408,57.62962962962964,0)" xlink:href="#X"/><use transform="matrix(0.07407407407407408,0,0,0.07407407407407408,63.481481481481495,0)" xlink:href="#ae"/><use transform="matrix(0.07407407407407408,0,0,0.07407407407407408,70.8888888888889,0)" xlink:href="#af"/><use transform="matrix(0.07407407407407408,0,0,0.07407407407407408,85.70370370370374,0)" xlink:href="#ac"/></g><g id="g"><use transform="matrix(0.07407407407407408,0,0,0.07407407407407408,0,0)" xlink:href="#ac"/><use transform="matrix(0.07407407407407408,0,0,0.07407407407407408,14.814814814814817,0)" xlink:href="#ad"/></g><g id="h"><use transform="matrix(0.07407407407407408,0,0,0.07407407407407408,0,0)" xlink:href="#ao"/><use transform="matrix(0.07407407407407408,0,0,0.07407407407407408,13.333333333333336,0)" xlink:href="#X"/><use transform="matrix(0.07407407407407408,0,0,0.07407407407407408,19.18518518518519,0)" xlink:href="#ae"/><use transform="matrix(0.07407407407407408,0,0,0.07407407407407408,26.5925925925926,0)" xlink:href="#Y"/></g><path d="M100-194c63 0 86 42 84 106H49c0 40 14 67 53 68 26 1 43-12 49-29l28 8c-11 28-37 45-77 45C44 4 14-33 15-96c1-61 26-98 85-98zm52 81c6-60-76-77-97-28-3 7-6 17-6 28h103zm-74-98c8-23 27-35 38-54h36v5l-58 49H78" id="ap"/><g id="i"><use transform="matrix(0.07407407407407408,0,0,0.07407407407407408,0,0)" xlink:href="#ab"/><use transform="matrix(0.07407407407407408,0,0,0.07407407407407408,22.148148148148152,0)" xlink:href="#ap"/><use transform="matrix(0.07407407407407408,0,0,0.07407407407407408,36.96296296296297,0)" xlink:href="#ac"/><use transform="matrix(0.07407407407407408,0,0,0.07407407407407408,51.777777777777786,0)" xlink:href="#X"/><use transform="matrix(0.07407407407407408,0,0,0.07407407407407408,57.62962962962964,0)" xlink:href="#ao"/><use transform="matrix(0.07407407407407408,0,0,0.07407407407407408,70.96296296296298,0)" xlink:href="#Y"/></g><path d="M233-177c-1 41-23 64-60 70L243 0h-38l-65-103H63V0H30v-248c88 3 205-21 203 71zM63-129c60-2 137 13 137-47 0-61-80-42-137-45v92" id="aq"/><path d="M108 0H70L1-190h34L89-25l56-165h34" id="ar"/><g id="j"><use transform="matrix(0.07407407407407408,0,0,0.07407407407407408,0,0)" xlink:href="#aq"/><use transform="matrix(0.07407407407407408,0,0,0.07407407407407408,19.185185185185187,0)" xlink:href="#ad"/><use transform="matrix(0.07407407407407408,0,0,0.07407407407407408,34,0)" xlink:href="#ar"/><use transform="matrix(0.07407407407407408,0,0,0.07407407407407408,47.33333333333334,0)" xlink:href="#X"/><use transform="matrix(0.07407407407407408,0,0,0.07407407407407408,53.18518518518519,0)" xlink:href="#ai"/><use transform="matrix(0.07407407407407408,0,0,0.07407407407407408,66.51851851851853,0)" xlink:href="#Y"/></g><g id="k"><use transform="matrix(0.07407407407407408,0,0,0.07407407407407408,0,0)" xlink:href="#ai"/><use transform="matrix(0.07407407407407408,0,0,0.07407407407407408,13.333333333333336,0)" xlink:href="#am"/><use transform="matrix(0.07407407407407408,0,0,0.07407407407407408,28.148148148148152,0)" xlink:href="#al"/><use transform="matrix(0.07407407407407408,0,0,0.07407407407407408,34.00000000000001,0)" xlink:href="#X"/><use transform="matrix(0.07407407407407408,0,0,0.07407407407407408,39.85185185185187,0)" xlink:href="#ao"/><use transform="matrix(0.07407407407407408,0,0,0.07407407407407408,53.1851851851852,0)" xlink:href="#X"/><use transform="matrix(0.07407407407407408,0,0,0.07407407407407408,59.03703703703705,0)" xlink:href="#ae"/><use transform="matrix(0.07407407407407408,0,0,0.07407407407407408,66.44444444444446,0)" xlink:href="#af"/><use transform="matrix(0.07407407407407408,0,0,0.07407407407407408,81.25925925925927,0)" xlink:href="#ac"/></g><path d="M33 0v-248h34V0H33" id="as"/><path d="M117-194c89-4 53 116 60 194h-32v-121c0-31-8-49-39-48C34-167 62-67 57 0H25l-1-190h30c1 10-1 24 2 32 11-22 29-35 61-36" id="at"/><g id="l"><use transform="matrix(0.07407407407407408,0,0,0.07407407407407408,0,0)" xlink:href="#as"/><use transform="matrix(0.07407407407407408,0,0,0.07407407407407408,7.407407407407408,0)" xlink:href="#at"/><use transform="matrix(0.07407407407407408,0,0,0.07407407407407408,22.222222222222225,0)" xlink:href="#ac"/><use transform="matrix(0.07407407407407408,0,0,0.07407407407407408,37.03703703703704,0)" xlink:href="#ad"/><use transform="matrix(0.07407407407407408,0,0,0.07407407407407408,51.85185185185186,0)" xlink:href="#at"/><use transform="matrix(0.07407407407407408,0,0,0.07407407407407408,66.66666666666667,0)" xlink:href="#ae"/><use transform="matrix(0.07407407407407408,0,0,0.07407407407407408,74.07407407407408,0)" xlink:href="#X"/><use transform="matrix(0.07407407407407408,0,0,0.07407407407407408,79.92592592592592,0)" xlink:href="#ak"/><use transform="matrix(0.07407407407407408,0,0,0.07407407407407408,87.33333333333333,0)" xlink:href="#X"/><use transform="matrix(0.07407407407407408,0,0,0.07407407407407408,93.18518518518518,0)" xlink:href="#ao"/><use transform="matrix(0.07407407407407408,0,0,0.07407407407407408,106.5185185185185,0)" xlink:href="#Y"/></g><g id="m"><use transform="matrix(0.07407407407407408,0,0,0.07407407407407408,0,0)" xlink:href="#ac"/><use transform="matrix(0.07407407407407408,0,0,0.07407407407407408,14.814814814814817,0)" xlink:href="#am"/><use transform="matrix(0.07407407407407408,0,0,0.07407407407407408,29.629629629629633,0)" xlink:href="#ao"/><use transform="matrix(0.07407407407407408,0,0,0.07407407407407408,42.96296296296297,0)" xlink:href="#ae"/><use transform="matrix(0.07407407407407408,0,0,0.07407407407407408,50.370370370370374,0)" xlink:href="#am"/><use transform="matrix(0.07407407407407408,0,0,0.07407407407407408,65.18518518518519,0)" xlink:href="#aa"/></g><path d="M115-194c55 1 70 41 70 98S169 2 115 4C84 4 66-9 55-30l1 105H24l-1-265h31l2 30c10-21 28-34 59-34zm-8 174c40 0 45-34 45-75s-6-73-45-74c-42 0-51 32-51 76 0 43 10 73 51 73" id="au"/><g id="n"><use transform="matrix(0.07407407407407408,0,0,0.07407407407407408,0,0)" xlink:href="#ac"/><use transform="matrix(0.07407407407407408,0,0,0.07407407407407408,14.814814814814817,0)" xlink:href="#X"/><use transform="matrix(0.07407407407407408,0,0,0.07407407407407408,20.666666666666668,0)" xlink:href="#ai"/><use transform="matrix(0.07407407407407408,0,0,0.07407407407407408,34.00000000000001,0)" xlink:href="#au"/><use transform="matrix(0.07407407407407408,0,0,0.07407407407407408,48.814814814814824,0)" xlink:href="#am"/><use transform="matrix(0.07407407407407408,0,0,0.07407407407407408,63.62962962962964,0)" xlink:href="#at"/><use transform="matrix(0.07407407407407408,0,0,0.07407407407407408,78.44444444444446,0)" xlink:href="#X"/><use transform="matrix(0.07407407407407408,0,0,0.07407407407407408,84.2962962962963,0)" xlink:href="#ag"/><use transform="matrix(0.07407407407407408,0,0,0.07407407407407408,99.11111111111111,0)" xlink:href="#al"/><use transform="matrix(0.07407407407407408,0,0,0.07407407407407408,104.96296296296296,0)" xlink:href="#ad"/></g><g id="o"><use transform="matrix(0.07407407407407408,0,0,0.07407407407407408,0,0)" xlink:href="#as"/><use transform="matrix(0.07407407407407408,0,0,0.07407407407407408,7.407407407407408,0)" xlink:href="#ac"/><use transform="matrix(0.07407407407407408,0,0,0.07407407407407408,22.222222222222225,0)" xlink:href="#ad"/><use transform="matrix(0.07407407407407408,0,0,0.07407407407407408,37.03703703703704,0)" xlink:href="#at"/><use transform="matrix(0.07407407407407408,0,0,0.07407407407407408,51.85185185185186,0)" xlink:href="#ae"/><use transform="matrix(0.07407407407407408,0,0,0.07407407407407408,59.25925925925927,0)" xlink:href="#X"/><use transform="matrix(0.07407407407407408,0,0,0.07407407407407408,65.11111111111111,0)" xlink:href="#ak"/><use transform="matrix(0.07407407407407408,0,0,0.07407407407407408,72.51851851851852,0)" xlink:href="#X"/><use transform="matrix(0.07407407407407408,0,0,0.07407407407407408,78.37037037037037,0)" xlink:href="#ao"/><use transform="matrix(0.07407407407407408,0,0,0.07407407407407408,91.7037037037037,0)" xlink:href="#Y"/></g><path d="M106-169C34-169 62-67 57 0H25v-261h32l-1 103c12-21 28-36 61-36 89 0 53 116 60 194h-32v-121c2-32-8-49-39-48" id="av"/><g id="p"><use transform="matrix(0.07407407407407408,0,0,0.07407407407407408,0,0)" xlink:href="#av"/><use transform="matrix(0.07407407407407408,0,0,0.07407407407407408,14.814814814814817,0)" xlink:href="#am"/><use transform="matrix(0.07407407407407408,0,0,0.07407407407407408,29.629629629629633,0)" xlink:href="#aa"/><use transform="matrix(0.07407407407407408,0,0,0.07407407407407408,38.44444444444445,0)" xlink:href="#Y"/><use transform="matrix(0.07407407407407408,0,0,0.07407407407407408,53.25925925925927,0)" xlink:href="#aa"/><use transform="matrix(0.07407407407407408,0,0,0.07407407407407408,62.07407407407408,0)" xlink:href="#X"/><use transform="matrix(0.07407407407407408,0,0,0.07407407407407408,67.92592592592594,0)" xlink:href="#am"/></g><g id="q"><use transform="matrix(0.07407407407407408,0,0,0.07407407407407408,0,0)" xlink:href="#ak"/><use transform="matrix(0.07407407407407408,0,0,0.07407407407407408,7.407407407407408,0)" xlink:href="#am"/><use transform="matrix(0.07407407407407408,0,0,0.07407407407407408,22.222222222222225,0)" xlink:href="#aa"/><use transform="matrix(0.07407407407407408,0,0,0.07407407407407408,31.03703703703704,0)" xlink:href="#ab"/><use transform="matrix(0.07407407407407408,0,0,0.07407407407407408,53.18518518518519,0)" xlink:href="#Y"/></g><g id="r"><use transform="matrix(0.07407407407407408,0,0,0.07407407407407408,0,0)" xlink:href="#ac"/><use transform="matrix(0.07407407407407408,0,0,0.07407407407407408,14.814814814814817,0)" xlink:href="#ad"/></g><g id="s"><use transform="matrix(0.07407407407407408,0,0,0.07407407407407408,0,0)" xlink:href="#au"/><use transform="matrix(0.07407407407407408,0,0,0.07407407407407408,14.814814814814817,0)" xlink:href="#Y"/><use transform="matrix(0.07407407407407408,0,0,0.07407407407407408,29.629629629629633,0)" xlink:href="#Z"/><use transform="matrix(0.07407407407407408,0,0,0.07407407407407408,44.44444444444445,0)" xlink:href="#am"/></g><path d="M143 4C61 4 22-44 18-125c-5-107 100-154 193-111 17 8 29 25 37 43l-32 9c-13-25-37-40-76-40-61 0-88 39-88 99 0 61 29 100 91 101 35 0 62-11 79-27v-45h-74v-28h105v86C228-13 192 4 143 4" id="aw"/><g id="t"><use transform="matrix(0.07407407407407408,0,0,0.07407407407407408,0,0)" xlink:href="#aw"/><use transform="matrix(0.07407407407407408,0,0,0.07407407407407408,20.740740740740744,0)" xlink:href="#ad"/><use transform="matrix(0.07407407407407408,0,0,0.07407407407407408,35.55555555555556,0)" xlink:href="#at"/><use transform="matrix(0.07407407407407408,0,0,0.07407407407407408,50.370370370370374,0)" xlink:href="#ad"/><use transform="matrix(0.07407407407407408,0,0,0.07407407407407408,65.18518518518519,0)" xlink:href="#aa"/><use transform="matrix(0.07407407407407408,0,0,0.07407407407407408,74,0)" xlink:href="#Y"/></g><g id="u"><use transform="matrix(0.07407407407407408,0,0,0.07407407407407408,0,0)" xlink:href="#aa"/><use transform="matrix(0.07407407407407408,0,0,0.07407407407407408,8.814814814814817,0)" xlink:href="#ad"/><use transform="matrix(0.07407407407407408,0,0,0.07407407407407408,23.629629629629633,0)" xlink:href="#ao"/><use transform="matrix(0.07407407407407408,0,0,0.07407407407407408,36.96296296296297,0)" xlink:href="#X"/><use transform="matrix(0.07407407407407408,0,0,0.07407407407407408,42.814814814814824,0)" xlink:href="#ag"/><use transform="matrix(0.07407407407407408,0,0,0.07407407407407408,57.62962962962964,0)" xlink:href="#am"/><use transform="matrix(0.07407407407407408,0,0,0.07407407407407408,72.44444444444446,0)" xlink:href="#ai"/></g><g id="v"><use transform="matrix(0.07407407407407408,0,0,0.07407407407407408,0,0)" xlink:href="#ao"/><use transform="matrix(0.07407407407407408,0,0,0.07407407407407408,13.333333333333336,0)" xlink:href="#X"/><use transform="matrix(0.07407407407407408,0,0,0.07407407407407408,19.18518518518519,0)" xlink:href="#ae"/><use transform="matrix(0.07407407407407408,0,0,0.07407407407407408,26.5925925925926,0)" xlink:href="#Y"/><use transform="matrix(0.07407407407407408,0,0,0.07407407407407408,41.40740740740742,0)" xlink:href="#ai"/></g><g id="w"><use transform="matrix(0.07407407407407408,0,0,0.07407407407407408,0,0)" xlink:href="#aq"/><use transform="matrix(0.07407407407407408,0,0,0.07407407407407408,19.185185185185187,0)" xlink:href="#ad"/><use transform="matrix(0.07407407407407408,0,0,0.07407407407407408,34,0)" xlink:href="#ao"/><use transform="matrix(0.07407407407407408,0,0,0.07407407407407408,47.33333333333334,0)" xlink:href="#X"/><use transform="matrix(0.07407407407407408,0,0,0.07407407407407408,53.18518518518519,0)" xlink:href="#ag"/><use transform="matrix(0.07407407407407408,0,0,0.07407407407407408,68,0)" xlink:href="#am"/><use transform="matrix(0.07407407407407408,0,0,0.07407407407407408,82.81481481481481,0)" xlink:href="#am"/><use transform="matrix(0.07407407407407408,0,0,0.07407407407407408,97.62962962962962,0)" xlink:href="#ai"/></g><path d="M212-179c-10-28-35-45-73-45-59 0-87 40-87 99 0 60 29 101 89 101 43 0 62-24 78-52l27 14C228-24 195 4 139 4 59 4 22-46 18-125c-6-104 99-153 187-111 19 9 31 26 39 46" id="ax"/><g id="x"><use transform="matrix(0.07407407407407408,0,0,0.07407407407407408,0,0)" xlink:href="#ax"/><use transform="matrix(0.07407407407407408,0,0,0.07407407407407408,19.185185185185187,0)" xlink:href="#X"/><use transform="matrix(0.07407407407407408,0,0,0.07407407407407408,25.037037037037035,0)" xlink:href="#ae"/><use transform="matrix(0.07407407407407408,0,0,0.07407407407407408,32.44444444444444,0)" xlink:href="#Y"/><use transform="matrix(0.07407407407407408,0,0,0.07407407407407408,47.25925925925926,0)" xlink:href="#ai"/></g><path d="M240 0l2-218c-23 76-54 145-80 218h-23L58-218 59 0H30v-248h44l77 211c21-75 51-140 76-211h43V0h-30" id="ay"/><path d="M24-231v-30h32v30H24zM-9 49c24 4 33-6 33-30v-209h32V24c2 40-23 58-65 49V49" id="az"/><g id="y"><use transform="matrix(0.07407407407407408,0,0,0.07407407407407408,0,0)" xlink:href="#ay"/><use transform="matrix(0.07407407407407408,0,0,0.07407407407407408,22.148148148148152,0)" xlink:href="#Y"/><use transform="matrix(0.07407407407407408,0,0,0.07407407407407408,36.96296296296297,0)" xlink:href="#at"/><use transform="matrix(0.07407407407407408,0,0,0.07407407407407408,51.777777777777786,0)" xlink:href="#ad"/><use transform="matrix(0.07407407407407408,0,0,0.07407407407407408,66.59259259259261,0)" xlink:href="#az"/><use transform="matrix(0.07407407407407408,0,0,0.07407407407407408,72.44444444444446,0)" xlink:href="#am"/></g><g id="z"><use transform="matrix(0.07407407407407408,0,0,0.07407407407407408,0,0)" xlink:href="#al"/><use transform="matrix(0.07407407407407408,0,0,0.07407407407407408,5.851851851851853,0)" xlink:href="#Y"/></g><g id="A"><use transform="matrix(0.07407407407407408,0,0,0.07407407407407408,0,0)" xlink:href="#ar"/><use transform="matrix(0.07407407407407408,0,0,0.07407407407407408,13.333333333333336,0)" xlink:href="#X"/><use transform="matrix(0.07407407407407408,0,0,0.07407407407407408,19.18518518518519,0)" xlink:href="#ac"/><use transform="matrix(0.07407407407407408,0,0,0.07407407407407408,34.00000000000001,0)" xlink:href="#ad"/><use transform="matrix(0.07407407407407408,0,0,0.07407407407407408,48.814814814814824,0)" xlink:href="#am"/><use transform="matrix(0.07407407407407408,0,0,0.07407407407407408,63.62962962962964,0)" xlink:href="#ao"/><use transform="matrix(0.07407407407407408,0,0,0.07407407407407408,76.96296296296298,0)" xlink:href="#am"/><use transform="matrix(0.07407407407407408,0,0,0.07407407407407408,91.7777777777778,0)" xlink:href="#at"/><use transform="matrix(0.07407407407407408,0,0,0.07407407407407408,106.59259259259261,0)" xlink:href="#ak"/><use transform="matrix(0.07407407407407408,0,0,0.07407407407407408,114.00000000000001,0)" xlink:href="#ad"/><use transform="matrix(0.07407407407407408,0,0,0.07407407407407408,128.81481481481484,0)" xlink:href="#aa"/><use transform="matrix(0.07407407407407408,0,0,0.07407407407407408,137.62962962962965,0)" xlink:href="#ad"/><use transform="matrix(0.07407407407407408,0,0,0.07407407407407408,152.44444444444446,0)" xlink:href="#at"/><use transform="matrix(0.07407407407407408,0,0,0.07407407407407408,167.2592592592593,0)" xlink:href="#ao"/><use transform="matrix(0.07407407407407408,0,0,0.07407407407407408,180.5925925925926,0)" xlink:href="#X"/><use transform="matrix(0.07407407407407408,0,0,0.07407407407407408,186.44444444444446,0)" xlink:href="#Y"/></g><g id="B"><use transform="matrix(0.07407407407407408,0,0,0.07407407407407408,0,0)" xlink:href="#al"/><use transform="matrix(0.07407407407407408,0,0,0.07407407407407408,5.851851851851853,0)" xlink:href="#al"/><use transform="matrix(0.07407407407407408,0,0,0.07407407407407408,11.703703703703706,0)" xlink:href="#Y"/><use transform="matrix(0.07407407407407408,0,0,0.07407407407407408,26.518518518518523,0)" xlink:href="#ab"/><use transform="matrix(0.07407407407407408,0,0,0.07407407407407408,48.66666666666667,0)" xlink:href="#Y"/><use transform="matrix(0.07407407407407408,0,0,0.07407407407407408,63.48148148148149,0)" xlink:href="#ac"/><use transform="matrix(0.07407407407407408,0,0,0.07407407407407408,78.2962962962963,0)" xlink:href="#Y"/></g><path d="M9 0v-24l116-142H16v-24h144v24L44-24h123V0H9" id="aA"/><g id="C"><use transform="matrix(0.07407407407407408,0,0,0.07407407407407408,0,0)" xlink:href="#ar"/><use transform="matrix(0.07407407407407408,0,0,0.07407407407407408,13.333333333333336,0)" xlink:href="#am"/><use transform="matrix(0.07407407407407408,0,0,0.07407407407407408,28.148148148148152,0)" xlink:href="#aA"/></g><g id="D"><use transform="matrix(0.07407407407407408,0,0,0.07407407407407408,0,0)" xlink:href="#ac"/><use transform="matrix(0.07407407407407408,0,0,0.07407407407407408,14.814814814814817,0)" xlink:href="#ad"/><use transform="matrix(0.07407407407407408,0,0,0.07407407407407408,29.629629629629633,0)" xlink:href="#al"/></g><g id="E"><use transform="matrix(0.07407407407407408,0,0,0.07407407407407408,0,0)" xlink:href="#ao"/><use transform="matrix(0.07407407407407408,0,0,0.07407407407407408,13.333333333333336,0)" xlink:href="#av"/><use transform="matrix(0.07407407407407408,0,0,0.07407407407407408,28.148148148148152,0)" xlink:href="#Y"/><use transform="matrix(0.07407407407407408,0,0,0.07407407407407408,42.96296296296297,0)" xlink:href="#ae"/></g><g id="F"><use transform="matrix(0.07407407407407408,0,0,0.07407407407407408,0,0)" xlink:href="#as"/><use transform="matrix(0.07407407407407408,0,0,0.07407407407407408,7.407407407407408,0)" xlink:href="#at"/><use transform="matrix(0.07407407407407408,0,0,0.07407407407407408,22.222222222222225,0)" xlink:href="#X"/><use transform="matrix(0.07407407407407408,0,0,0.07407407407407408,28.074074074074076,0)" xlink:href="#ao"/><use transform="matrix(0.07407407407407408,0,0,0.07407407407407408,41.40740740740741,0)" xlink:href="#X"/><use transform="matrix(0.07407407407407408,0,0,0.07407407407407408,47.25925925925927,0)" xlink:href="#am"/></g><g id="G"><use transform="matrix(0.07407407407407408,0,0,0.07407407407407408,0,0)" xlink:href="#W"/><use transform="matrix(0.07407407407407408,0,0,0.07407407407407408,19.185185185185187,0)" xlink:href="#am"/><use transform="matrix(0.07407407407407408,0,0,0.07407407407407408,34,0)" xlink:href="#ao"/><use transform="matrix(0.07407407407407408,0,0,0.07407407407407408,47.33333333333334,0)" xlink:href="#af"/><use transform="matrix(0.07407407407407408,0,0,0.07407407407407408,62.14814814814816,0)" xlink:href="#ab"/><use transform="matrix(0.07407407407407408,0,0,0.07407407407407408,84.2962962962963,0)" xlink:href="#ad"/><use transform="matrix(0.07407407407407408,0,0,0.07407407407407408,99.11111111111111,0)" xlink:href="#at"/><use transform="matrix(0.07407407407407408,0,0,0.07407407407407408,113.92592592592592,0)" xlink:href="#ae"/><use transform="matrix(0.07407407407407408,0,0,0.07407407407407408,121.33333333333333,0)" xlink:href="#am"/><use transform="matrix(0.07407407407407408,0,0,0.07407407407407408,136.14814814814815,0)" xlink:href="#ai"/></g><g id="H"><use transform="matrix(0.07407407407407408,0,0,0.07407407407407408,0,0)" xlink:href="#ab"/><use transform="matrix(0.07407407407407408,0,0,0.07407407407407408,22.148148148148152,0)" xlink:href="#ap"/><use transform="matrix(0.07407407407407408,0,0,0.07407407407407408,36.96296296296297,0)" xlink:href="#ac"/><use transform="matrix(0.07407407407407408,0,0,0.07407407407407408,51.777777777777786,0)" xlink:href="#X"/><use transform="matrix(0.07407407407407408,0,0,0.07407407407407408,57.62962962962964,0)" xlink:href="#ao"/><use transform="matrix(0.07407407407407408,0,0,0.07407407407407408,70.96296296296298,0)" xlink:href="#am"/><use transform="matrix(0.07407407407407408,0,0,0.07407407407407408,85.7777777777778,0)" xlink:href="#ai"/></g><g id="I"><use transform="matrix(0.07407407407407408,0,0,0.07407407407407408,0,0)" xlink:href="#ai"/><use transform="matrix(0.07407407407407408,0,0,0.07407407407407408,13.333333333333336,0)" xlink:href="#am"/><use transform="matrix(0.07407407407407408,0,0,0.07407407407407408,28.148148148148152,0)" xlink:href="#au"/><use transform="matrix(0.07407407407407408,0,0,0.07407407407407408,42.96296296296297,0)" xlink:href="#am"/><use transform="matrix(0.07407407407407408,0,0,0.07407407407407408,57.777777777777786,0)" xlink:href="#aa"/><use transform="matrix(0.07407407407407408,0,0,0.07407407407407408,66.59259259259261,0)" xlink:href="#ae"/><use transform="matrix(0.07407407407407408,0,0,0.07407407407407408,74.00000000000001,0)" xlink:href="#ad"/></g><g id="J"><use transform="matrix(0.07407407407407408,0,0,0.07407407407407408,0,0)" xlink:href="#aa"/><use transform="matrix(0.07407407407407408,0,0,0.07407407407407408,8.814814814814817,0)" xlink:href="#ad"/><use transform="matrix(0.07407407407407408,0,0,0.07407407407407408,23.629629629629633,0)" xlink:href="#ao"/><use transform="matrix(0.07407407407407408,0,0,0.07407407407407408,36.96296296296297,0)" xlink:href="#ad"/><use transform="matrix(0.07407407407407408,0,0,0.07407407407407408,51.777777777777786,0)" xlink:href="#ae"/><use transform="matrix(0.07407407407407408,0,0,0.07407407407407408,59.18518518518519,0)" xlink:href="#Y"/></g><g id="K"><use transform="matrix(0.07407407407407408,0,0,0.07407407407407408,0,0)" xlink:href="#aq"/><use transform="matrix(0.07407407407407408,0,0,0.07407407407407408,19.185185185185187,0)" xlink:href="#ad"/><use transform="matrix(0.07407407407407408,0,0,0.07407407407407408,34,0)" xlink:href="#Y"/><use transform="matrix(0.07407407407407408,0,0,0.07407407407407408,48.81481481481481,0)" xlink:href="#al"/><use transform="matrix(0.07407407407407408,0,0,0.07407407407407408,54.66666666666667,0)" xlink:href="#X"/><use transform="matrix(0.07407407407407408,0,0,0.07407407407407408,60.518518518518526,0)" xlink:href="#aA"/><use transform="matrix(0.07407407407407408,0,0,0.07407407407407408,73.85185185185186,0)" xlink:href="#Y"/></g><path d="M100-194c62-1 85 37 85 99 1 63-27 99-86 99S16-35 15-95c0-66 28-99 85-99zM99-20c44 1 53-31 53-75 0-43-8-75-51-75s-53 32-53 75 10 74 51 75zM76-211c8-23 27-35 38-54h36v5l-58 49H76" id="aB"/><g id="L"><use transform="matrix(0.07407407407407408,0,0,0.07407407407407408,0,0)" xlink:href="#ac"/><use transform="matrix(0.07407407407407408,0,0,0.07407407407407408,14.814814814814817,0)" xlink:href="#X"/><use transform="matrix(0.07407407407407408,0,0,0.07407407407407408,20.666666666666668,0)" xlink:href="#Y"/><use transform="matrix(0.07407407407407408,0,0,0.07407407407407408,35.48148148148149,0)" xlink:href="#Z"/><use transform="matrix(0.07407407407407408,0,0,0.07407407407407408,50.296296296296305,0)" xlink:href="#at"/><use transform="matrix(0.07407407407407408,0,0,0.07407407407407408,65.11111111111111,0)" xlink:href="#aB"/><use transform="matrix(0.07407407407407408,0,0,0.07407407407407408,79.92592592592592,0)" xlink:href="#ai"/><use transform="matrix(0.07407407407407408,0,0,0.07407407407407408,93.25925925925927,0)" xlink:href="#ae"/><use transform="matrix(0.07407407407407408,0,0,0.07407407407407408,100.66666666666666,0)" xlink:href="#X"/><use transform="matrix(0.07407407407407408,0,0,0.07407407407407408,106.51851851851852,0)" xlink:href="#ao"/><use transform="matrix(0.07407407407407408,0,0,0.07407407407407408,119.85185185185185,0)" xlink:href="#am"/></g><g id="M"><use transform="matrix(0.07407407407407408,0,0,0.07407407407407408,0,0)" xlink:href="#ab"/><use transform="matrix(0.07407407407407408,0,0,0.07407407407407408,22.148148148148152,0)" xlink:href="#ap"/><use transform="matrix(0.07407407407407408,0,0,0.07407407407407408,36.96296296296297,0)" xlink:href="#ac"/><use transform="matrix(0.07407407407407408,0,0,0.07407407407407408,51.777777777777786,0)" xlink:href="#X"/><use transform="matrix(0.07407407407407408,0,0,0.07407407407407408,57.62962962962964,0)" xlink:href="#ao"/><use transform="matrix(0.07407407407407408,0,0,0.07407407407407408,70.96296296296298,0)" xlink:href="#am"/></g><g id="N"><use transform="matrix(0.07407407407407408,0,0,0.07407407407407408,0,0)" xlink:href="#aq"/><use transform="matrix(0.07407407407407408,0,0,0.07407407407407408,19.185185185185187,0)" xlink:href="#ad"/><use transform="matrix(0.07407407407407408,0,0,0.07407407407407408,34,0)" xlink:href="#ao"/><use transform="matrix(0.07407407407407408,0,0,0.07407407407407408,47.33333333333334,0)" xlink:href="#ad"/><use transform="matrix(0.07407407407407408,0,0,0.07407407407407408,62.14814814814816,0)" xlink:href="#ae"/><use transform="matrix(0.07407407407407408,0,0,0.07407407407407408,69.55555555555556,0)" xlink:href="#Y"/></g><path d="M197 0v-115H63V0H30v-248h33v105h134v-105h34V0h-34" id="aC"/><g id="O"><use transform="matrix(0.07407407407407408,0,0,0.07407407407407408,0,0)" xlink:href="#aC"/><use transform="matrix(0.07407407407407408,0,0,0.07407407407407408,19.185185185185187,0)" xlink:href="#X"/><use transform="matrix(0.07407407407407408,0,0,0.07407407407407408,25.037037037037035,0)" xlink:href="#ai"/><use transform="matrix(0.07407407407407408,0,0,0.07407407407407408,38.370370370370374,0)" xlink:href="#ae"/><use transform="matrix(0.07407407407407408,0,0,0.07407407407407408,45.777777777777786,0)" xlink:href="#am"/><use transform="matrix(0.07407407407407408,0,0,0.07407407407407408,60.5925925925926,0)" xlink:href="#aa"/><use transform="matrix(0.07407407407407408,0,0,0.07407407407407408,69.40740740740742,0)" xlink:href="#X"/><use transform="matrix(0.07407407407407408,0,0,0.07407407407407408,75.25925925925927,0)" xlink:href="#Y"/><use transform="matrix(0.07407407407407408,0,0,0.07407407407407408,90.07407407407408,0)" xlink:href="#al"/></g><path d="M140-251c81 0 123 46 123 126C263-46 219 4 140 4 59 4 17-45 17-125s42-126 123-126zm0 227c63 0 89-41 89-101s-29-99-89-99c-61 0-89 39-89 99S79-25 140-24" id="aD"/><g id="P"><use transform="matrix(0.07407407407407408,0,0,0.07407407407407408,0,0)" xlink:href="#aD"/><use transform="matrix(0.07407407407407408,0,0,0.07407407407407408,20.740740740740744,0)" xlink:href="#aa"/><use transform="matrix(0.07407407407407408,0,0,0.07407407407407408,29.55555555555556,0)" xlink:href="#ac"/><use transform="matrix(0.07407407407407408,0,0,0.07407407407407408,44.37037037037039,0)" xlink:href="#ad"/><use transform="matrix(0.07407407407407408,0,0,0.07407407407407408,59.185185185185205,0)" xlink:href="#at"/></g><g id="Q"><use transform="matrix(0.07407407407407408,0,0,0.07407407407407408,0,0)" xlink:href="#aq"/><use transform="matrix(0.07407407407407408,0,0,0.07407407407407408,19.185185185185187,0)" xlink:href="#ad"/><use transform="matrix(0.07407407407407408,0,0,0.07407407407407408,34,0)" xlink:href="#Z"/><use transform="matrix(0.07407407407407408,0,0,0.07407407407407408,48.81481481481481,0)" xlink:href="#X"/><use transform="matrix(0.07407407407407408,0,0,0.07407407407407408,54.66666666666667,0)" xlink:href="#ai"/><use transform="matrix(0.07407407407407408,0,0,0.07407407407407408,68,0)" xlink:href="#ae"/><use transform="matrix(0.07407407407407408,0,0,0.07407407407407408,75.4074074074074,0)" xlink:href="#aa"/><use transform="matrix(0.07407407407407408,0,0,0.07407407407407408,84.22222222222223,0)" xlink:href="#am"/></g><use transform="matrix(0.07407407407407408,0,0,0.07407407407407408,0,0)" xlink:href="#aj" id="R"/><g id="S"><use transform="matrix(0.07407407407407408,0,0,0.07407407407407408,0,0)" xlink:href="#Z"/><use transform="matrix(0.07407407407407408,0,0,0.07407407407407408,14.814814814814817,0)" xlink:href="#aa"/><use transform="matrix(0.07407407407407408,0,0,0.07407407407407408,23.629629629629633,0)" xlink:href="#Y"/><use transform="matrix(0.07407407407407408,0,0,0.07407407407407408,38.44444444444445,0)" xlink:href="#ag"/><use transform="matrix(0.07407407407407408,0,0,0.07407407407407408,53.25925925925927,0)" xlink:href="#Y"/><use transform="matrix(0.07407407407407408,0,0,0.07407407407407408,68.07407407407408,0)" xlink:href="#ac"/><use transform="matrix(0.07407407407407408,0,0,0.07407407407407408,82.88888888888889,0)" xlink:href="#am"/></g><g id="T"><use transform="matrix(0.07407407407407408,0,0,0.07407407407407408,0,0)" xlink:href="#al"/><use transform="matrix(0.07407407407407408,0,0,0.07407407407407408,5.851851851851853,0)" xlink:href="#Y"/></g><path d="M30 0v-248h187v28H63v79h144v27H63v87h162V0H30" id="aE"/><g id="U"><use transform="matrix(0.07407407407407408,0,0,0.07407407407407408,0,0)" xlink:href="#aE"/><use transform="matrix(0.07407407407407408,0,0,0.07407407407407408,17.77777777777778,0)" xlink:href="#ar"/><use transform="matrix(0.07407407407407408,0,0,0.07407407407407408,31.111111111111114,0)" xlink:href="#X"/><use transform="matrix(0.07407407407407408,0,0,0.07407407407407408,36.96296296296297,0)" xlink:href="#ac"/><use transform="matrix(0.07407407407407408,0,0,0.07407407407407408,51.777777777777786,0)" xlink:href="#ad"/><use transform="matrix(0.07407407407407408,0,0,0.07407407407407408,66.59259259259261,0)" xlink:href="#at"/><use transform="matrix(0.07407407407407408,0,0,0.07407407407407408,81.40740740740742,0)" xlink:href="#ao"/><use transform="matrix(0.07407407407407408,0,0,0.07407407407407408,94.74074074074078,0)" xlink:href="#X"/><use transform="matrix(0.07407407407407408,0,0,0.07407407407407408,100.59259259259261,0)" xlink:href="#Y"/></g><path d="M127-220V0H93v-220H8v-28h204v28h-85" id="aF"/><g id="V"><use transform="matrix(0.1358024691358025,0,0,0.1358024691358025,0,0)" xlink:href="#aF"/><use transform="matrix(0.1358024691358025,0,0,0.1358024691358025,24.308641975308646,0)" xlink:href="#ad"/><use transform="matrix(0.1358024691358025,0,0,0.1358024691358025,51.46913580246915,0)" xlink:href="#al"/><use transform="matrix(0.1358024691358025,0,0,0.1358024691358025,62.19753086419754,0)" xlink:href="#ad"/><use transform="matrix(0.1358024691358025,0,0,0.1358024691358025,89.35802469135804,0)" xlink:href="#ab"/><use transform="matrix(0.1358024691358025,0,0,0.1358024691358025,129.962962962963,0)" xlink:href="#ad"/><use transform="matrix(0.1358024691358025,0,0,0.1358024691358025,157.1234567901235,0)" xlink:href="#ac"/><use transform="matrix(0.1358024691358025,0,0,0.1358024691358025,184.283950617284,0)" xlink:href="#X"/><use transform="matrix(0.1358024691358025,0,0,0.1358024691358025,195.0123456790124,0)" xlink:href="#ao"/><use transform="matrix(0.1358024691358025,0,0,0.1358024691358025,219.4567901234569,0)" xlink:href="#X"/><use transform="matrix(0.1358024691358025,0,0,0.1358024691358025,230.18518518518528,0)" xlink:href="#at"/><use transform="matrix(0.1358024691358025,0,0,0.1358024691358025,257.3456790123458,0)" xlink:href="#Y"/></g></defs></g></svg>